<?xml version="1.0" ?><svg xmlns="http://www.w3.org/2000/svg" xmlns:xlink="http://www.w3.org/1999/xlink" version="1.1" viewBox="0 0 94 94" style="enable-background:new 0 0 94 94;" xml:space="preserve"><style type="text/css">
	.st0{display:none;}
	.st1{display:inline;fill:#FEA900;}
	.st2{display:inline;}
	.st3{display:inline;fill:#F9CD6C;}
	.st4{display:inline;fill:none;stroke:#000000;stroke-width:0.25;stroke-miterlimit:10;}
	.st5{stroke:#000000;stroke-linecap:round;stroke-linejoin:round;stroke-miterlimit:10;}
	.st6{opacity:0.2;stroke:#000000;stroke-linecap:round;stroke-linejoin:round;stroke-miterlimit:10;}
	.st7{fill:#F12A00;stroke:#000000;stroke-linecap:round;stroke-linejoin:round;stroke-miterlimit:10;}
	.st8{fill:#FBECCF;stroke:#000000;stroke-linecap:round;stroke-linejoin:round;stroke-miterlimit:10;}
	.st9{opacity:0.2;fill:#F12A00;}
	.st10{fill:#F7C86C;stroke:#000000;stroke-linecap:round;stroke-linejoin:round;stroke-miterlimit:10;}
	.st11{fill:none;stroke:#000000;stroke-linecap:round;stroke-linejoin:round;stroke-miterlimit:10;}
	.st12{display:inline;stroke:#000000;stroke-linecap:round;stroke-linejoin:round;stroke-miterlimit:10;}
	.st13{fill:#FAAC01;stroke:#000000;stroke-linecap:round;stroke-linejoin:round;stroke-miterlimit:10;}
	.st14{fill:#FAAC01;}
	.st15{display:inline;fill:#FAEBCE;stroke:#000000;stroke-width:0.25;stroke-miterlimit:10;}
	.st16{display:inline;fill:none;stroke:#000000;stroke-width:1.0164;stroke-miterlimit:10;}
	.st17{display:inline;fill:#FAEBCE;stroke:#000000;stroke-width:1.0164;stroke-miterlimit:10;}
	.st18{fill:#FEA900;}
	.st19{fill:#F9CD6C;}
	.st20{fill:none;stroke:#000000;stroke-width:1.0164;stroke-miterlimit:10;}
	.st21{fill:#FAEBCE;stroke:#000000;stroke-width:1.0164;stroke-miterlimit:10;}
	.st22{display:inline;fill:#FAEBCE;}
	.st23{fill:#008FF5;stroke:#000000;stroke-linecap:round;stroke-linejoin:round;stroke-miterlimit:10;}
	.st24{fill:#D0E6FB;stroke:#000000;stroke-linecap:round;stroke-linejoin:round;stroke-miterlimit:10;}
	.st25{fill:#FFFFFF;stroke:#000000;stroke-linecap:round;stroke-linejoin:round;stroke-miterlimit:10;}
	.st26{fill:#75D95D;stroke:#000000;stroke-linecap:round;stroke-linejoin:round;stroke-miterlimit:10;}
	.st27{fill:#CAF3BB;}
	.st28{fill:#FFFFFF;}
	.st29{fill:#CAF3BB;stroke:#000000;stroke-linecap:round;stroke-linejoin:round;stroke-miterlimit:10;}
	.st30{display:inline;fill:#D0E6FB;stroke:#000000;stroke-linecap:round;stroke-linejoin:round;stroke-miterlimit:10;}
	.st31{stroke:#FFFFFF;stroke-linecap:round;stroke-linejoin:round;stroke-miterlimit:10;}
	.st32{fill:#B4B2FB;stroke:#000000;stroke-linecap:round;stroke-linejoin:round;stroke-miterlimit:10;}
	.st33{fill:#018BEE;}
	.st34{display:inline;fill:none;stroke:#000000;stroke-linecap:round;stroke-linejoin:round;stroke-miterlimit:10;}
	.st35{fill:#75D95D;}
	.st36{fill:#4949F7;stroke:#000000;stroke-linecap:round;stroke-linejoin:round;stroke-miterlimit:10;}
	.st37{fill:#D0E6FB;}
	.st38{fill:#6FBBF7;stroke:#000000;stroke-linecap:round;stroke-linejoin:round;stroke-miterlimit:10;}
	.st39{fill:#018BEE;stroke:#000000;stroke-linecap:round;stroke-linejoin:round;stroke-miterlimit:10;}
	.st40{fill:#B4B2FB;}
	.st41{fill:#E8E9FE;}
	.st42{fill:#B4B2FB;stroke:#000F24;stroke-miterlimit:10;}
	.st43{stroke:#000000;stroke-miterlimit:10;}
	.st44{fill:#E8E9FE;stroke:#000000;stroke-linecap:round;stroke-linejoin:round;stroke-miterlimit:10;}
	.st45{opacity:0.3;fill:#018BEE;}
	.st46{fill:#6FBBF7;}
	.st47{fill:#FAAC01;stroke:#FFFFFF;stroke-linecap:round;stroke-linejoin:round;stroke-miterlimit:10;}
	.st48{fill:#006A2F;}
	.st49{opacity:0.1;}
	.st50{fill:#FCD4CA;stroke:#000000;stroke-linecap:round;stroke-linejoin:round;stroke-miterlimit:10;}
	.st51{fill:#006A2F;stroke:#000000;stroke-linecap:round;stroke-linejoin:round;stroke-miterlimit:10;}
	.st52{fill:#4949F7;}
	.st53{fill:#F12A00;}
	.st54{fill:#D0E6FB;stroke:#018BEE;stroke-linecap:round;stroke-linejoin:round;stroke-miterlimit:10;}
	.st55{fill:#9CD7FF;}
	.st56{fill:#F7C86C;}
	.st57{opacity:0.3;stroke:#000000;stroke-linecap:round;stroke-linejoin:round;stroke-miterlimit:10;}
	.st58{opacity:0.1;stroke:#000000;stroke-linecap:round;stroke-linejoin:round;stroke-miterlimit:10;}
	.st59{opacity:0.3;fill:#006A2F;}
	.st60{stroke:#000000;stroke-width:1.0825;stroke-linecap:round;stroke-linejoin:round;stroke-miterlimit:10;}
	.st61{fill:#D0E6FB;stroke:#000000;stroke-width:1.0825;stroke-linecap:round;stroke-linejoin:round;stroke-miterlimit:10;}
	.st62{fill:#6FBBF7;stroke:#000000;stroke-width:1.0825;stroke-linecap:round;stroke-linejoin:round;stroke-miterlimit:10;}
	.st63{fill:none;stroke:#000000;stroke-width:1.0825;stroke-linecap:round;stroke-linejoin:round;stroke-miterlimit:10;}
	.st64{fill:#CAF3BB;stroke:#000000;stroke-width:0.7876;stroke-linecap:round;stroke-linejoin:round;stroke-miterlimit:10;}
	.st65{fill:#6FBBF7;stroke:#FFFFFF;stroke-linecap:round;stroke-linejoin:round;stroke-miterlimit:10;}
	.st66{opacity:0.2;}
	.st67{stroke:#E8E9FE;stroke-linecap:round;stroke-linejoin:round;stroke-miterlimit:10;}
	.st68{fill:#FCD4CA;}
	.st69{fill:#FBECCF;}
	.st70{opacity:0.1;fill:#F12A00;}
	.st71{opacity:0.5;stroke:#000000;stroke-linecap:round;stroke-linejoin:round;stroke-miterlimit:10;}
	.st72{fill:#6FBBF7;stroke:#E8E9FE;stroke-linecap:round;stroke-linejoin:round;stroke-miterlimit:10;}
	.st73{opacity:0.5;fill:#D0E6FB;}
	.st74{fill:#70BAF7;}
	.st75{fill:none;stroke:#FFFFFF;stroke-linecap:round;stroke-linejoin:round;stroke-miterlimit:10;}
	.st76{fill:#70BAF7;stroke:#70BAF7;stroke-linecap:round;stroke-linejoin:round;stroke-miterlimit:10;}
	.st77{fill:#018BEE;stroke:#018BEE;stroke-linecap:round;stroke-linejoin:round;stroke-miterlimit:10;}
	.st78{fill:#70BAF7;stroke:#000000;stroke-linecap:round;stroke-linejoin:round;stroke-miterlimit:10;}
	.st79{fill:#F9CD6C;stroke:#000000;stroke-linecap:round;stroke-linejoin:round;stroke-miterlimit:10;}
	.st80{fill:none;}
	.st81{fill:#006A2F;stroke:#006A2F;stroke-miterlimit:10;}
	.st82{fill:#B4DFFC;}
	.st83{fill:#6FBBF7;stroke:#018BEE;stroke-linecap:round;stroke-linejoin:round;stroke-miterlimit:10;}
	.st84{fill:none;stroke:#FBECCF;stroke-linecap:round;stroke-linejoin:round;stroke-miterlimit:10;}
	.st85{fill:none;stroke:#018BEE;stroke-linecap:round;stroke-linejoin:round;stroke-miterlimit:10;}
	.st86{fill:#010101;stroke:#FFFFFF;stroke-linecap:round;stroke-linejoin:round;stroke-miterlimit:10;}
	.st87{fill:#010101;stroke:#000000;stroke-linecap:round;stroke-linejoin:round;stroke-miterlimit:10;}
	.st88{fill:#75D95D;stroke:#FFFFFF;stroke-linecap:round;stroke-linejoin:round;stroke-miterlimit:10;}
	.st89{fill:#94F279;stroke:#000000;stroke-linecap:round;stroke-linejoin:round;stroke-miterlimit:10;}
	.st90{fill:#8C8CF9;}
	.st91{fill:#008FF5;}
	.st92{fill:#8CD8F9;}
	.st93{fill:#FFC043;}
	.st94{fill:#94F279;}
	.st95{fill:#FF3D1D;}
	.st96{fill:#31B1FF;}
	.st97{fill:#FFCF7B;}
	.st98{fill:#B2FF99;}
	.st99{fill:#D7D7FF;}
	.st100{fill:#FF7C6E;}
	.st101{fill:#5CC9FF;}
	.st102{fill:#F12A00;stroke:#FFFFFF;stroke-linecap:round;stroke-linejoin:round;stroke-miterlimit:10;}
	.st103{fill:#F7C86C;stroke:#000000;stroke-width:1.0164;stroke-miterlimit:10;}
</style><g id="Refrences" class="st0"/><g id="Tittle"/><g id="Icons"><g><g><path class="st5" d="M58.76,14.23L47.71,2.5c-0.5-0.53-1.59-0.66-2.45-0.3l-4.85,1.99v20.38l17.87-7.35     C59.61,16.69,59.79,15.32,58.76,14.23z"/><g><g><path class="st5" d="M54.38,16.01l-7.55,3.1c-0.82,0.34-1.83-0.02-2.24-0.78l0,0c-0.4-0.73-0.08-1.57,0.69-1.89l7.1-2.92       c0.77-0.32,1.84-0.05,2.41,0.61l0,0C55.39,14.82,55.21,15.67,54.38,16.01z"/></g><g><polygon class="st5" points="40.42,15.5 44.14,13.98 42.43,11.07 40.42,11.9      "/><polygon class="st5" points="51.15,11.09 46.48,13.01 44.6,10.18 48.95,8.39      "/></g><polygon class="st5" points="40.42,9.41 47.42,6.53 45.15,4.78 40.42,6.73     "/></g></g><g><path class="st36" d="M85.37,85.4l-0.59,2.84c-0.61,2.58-3.06,4.21-5.49,3.64L11.91,76.04c-3.04-0.71-4.4-4.42-2.66-7.22     l0.75-1.36"/><path class="st24" d="M79.35,88.03L14.22,72.72c-3.33-0.78-5.19-3.83-3.8-6.2L23.29,50.8c0.99-1.69,3.35-2.49,5.71-1.93     l47.97,11.28c2.33,0.55,4.08,2.27,4.25,4.2l4.28,19.75C85.76,86.88,82.71,88.82,79.35,88.03z"/><path class="st32" d="M14.83,70.13c-1.21-0.28-1.9-1-2.13-1.52c-0.13-0.3-0.1-0.5-0.05-0.63l12.83-15.67l0.11-0.18     c0.34-0.58,1.49-1,2.82-0.69l47.97,11.28c1.31,0.31,2.15,1.18,2.21,1.85l0.02,0.17l4.27,19.7c-0.01,0.14-0.06,0.34-0.32,0.57     c-0.43,0.38-1.37,0.71-2.59,0.42L14.83,70.13z"/><path d="M21.15,64.05L21.15,64.05c-0.42-0.27-0.53-0.83-0.26-1.25l3.97-6.02c0.27-0.42,0.83-0.53,1.25-0.26h0     c0.42,0.27,0.53,0.83,0.26,1.25l-3.97,6.02C22.13,64.21,21.57,64.32,21.15,64.05z"/><line class="st32" x1="23.95" y1="76.85" x2="32.41" y2="78.86"/><polygon class="st37" points="34.28,74.73 24.23,72.17 42.38,54.83 52.71,57.17    "/><polygon class="st37" points="54.68,79.44 44.64,76.88 62.79,59.55 73.12,61.88    "/><path class="st11" d="M14.83,70.13c-1.21-0.28-1.9-1-2.13-1.52c-0.13-0.3-0.1-0.5-0.05-0.63l12.83-15.67l0.11-0.18     c0.34-0.58,1.49-1,2.82-0.69l47.97,11.28c1.31,0.31,2.15,1.18,2.21,1.85l0.02,0.17l4.27,19.7c-0.01,0.14-0.06,0.34-0.32,0.57     c-0.43,0.38-1.37,0.71-2.59,0.42L14.83,70.13z"/></g><g><g><g><g><g><g><path class="st5" d="M58.87,66.07c5.05,4.16,12.54,3.44,16.7-1.61c4.16-5.05,3.44-12.54-1.61-16.7l-1.7-1.4L57.18,64.67          L58.87,66.07z"/><path class="st13" d="M57.18,64.67c-5.05-4.16-5.77-11.65-1.61-16.7c4.16-5.05,11.65-5.77,16.7-1.61          c5.05,4.16,5.77,11.65,1.61,16.7C69.72,68.11,62.23,68.83,57.18,64.67z"/><circle class="st5" cx="64.72" cy="55.52" r="8.87"/><path class="st10" d="M71.57,61.16c-2.97,3.6-8.16,4.26-11.91,1.64c-3.29-3.18-3.63-8.41-0.67-12.01          c2.96-3.59,8.16-4.25,11.91-1.63C74.18,52.34,74.53,57.57,71.57,61.16z"/><g><path class="st11" d="M61.18,55.86c-0.88,1.07-0.73,2.66,0.34,3.54c1.07,0.88,2.66,0.73,3.54-0.34           c0.88-1.07,0.73-2.66-0.34-3.54c-1.07-0.88-1.22-2.47-0.34-3.54c0.88-1.07,2.47-1.22,3.54-0.34           c1.07,0.88,1.22,2.47,0.34,3.54"/><line class="st25" x1="67.92" y1="51.64" x2="68.48" y2="50.96"/><line class="st25" x1="60.96" y1="60.08" x2="61.53" y2="59.4"/></g></g></g></g></g></g></g><g><g><g><g><g><g><path class="st5" d="M49.74,46.02c5.08-1.7,7.82-7.21,6.13-12.29c-1.7-5.08-7.21-7.82-12.29-6.13l-1.7,0.57l6.16,18.41          L49.74,46.02z"/><path class="st13" d="M48.03,46.59c-5.08,1.7-10.59-1.05-12.29-6.13c-1.7-5.08,1.05-10.59,6.13-12.29          c5.08-1.7,10.59,1.05,12.29,6.13C55.86,39.38,53.11,44.89,48.03,46.59z"/><circle class="st5" cx="44.95" cy="37.38" r="7.26"/><path class="st10" d="M51.83,35.07c1.21,3.62-0.58,7.51-4.03,8.98c-3.63,0.9-7.41-1.13-8.62-4.74          c-1.21-3.61,0.59-7.51,4.03-8.97C46.85,29.43,50.62,31.46,51.83,35.07z"/><g><path class="st11" d="M43.65,39.98c0.36,1.08,1.53,1.66,2.6,1.3c1.08-0.36,1.66-1.53,1.3-2.6c-0.36-1.08-1.53-1.66-2.6-1.3           c-1.08,0.36-2.24-0.22-2.6-1.3c-0.36-1.08,0.22-2.24,1.3-2.6c1.08-0.36,2.24,0.22,2.6,1.3"/><line class="st25" x1="43.64" y1="33.48" x2="43.41" y2="32.79"/><line class="st25" x1="46.49" y1="41.97" x2="46.26" y2="41.28"/></g></g></g></g></g></g></g><g><path class="st29" d="M56.45,18.01l-34,13.98c-1.31,0.54-2.41-0.3-2.45-1.8l-0.39-16.11c-0.02-0.73,0.67-1.58,1.53-1.94     l22.28-9.16c0.86-0.35,1.95-0.23,2.45,0.3l11.05,11.73C57.95,16.1,57.76,17.47,56.45,18.01z"/><g><g><path class="st24" d="M31.91,25.27l-7.55,3.1c-0.82,0.34-1.55-0.14-1.62-1.04v0c-0.07-0.87,0.51-1.81,1.28-2.13l7.1-2.92       c0.77-0.32,1.59,0.05,1.82,0.85v0C33.2,23.97,32.73,24.93,31.91,25.27z"/><path class="st24" d="M52.54,16.79l-7.55,3.1c-0.82,0.34-1.83-0.02-2.24-0.78v0c-0.4-0.73-0.08-1.57,0.69-1.89l7.1-2.92       c0.77-0.32,1.84-0.05,2.41,0.61l0,0C53.54,15.61,53.36,16.45,52.54,16.79z"/></g><g><polygon class="st24" points="28.25,20.53 23.58,22.45 23.22,18.99 27.56,17.21      "/><polygon class="st24" points="35.27,17.65 30.59,19.57 29.73,16.32 34.08,14.53      "/><polygon class="st24" points="42.29,14.76 37.61,16.68 36.25,13.64 40.59,11.85      "/><polygon class="st24" points="49.31,11.88 44.63,13.8 42.76,10.96 47.1,9.18      "/></g><polygon class="st38" points="45.58,7.32 35.3,11.54 34.92,9.02 43.31,5.57     "/><polygon class="st33" points="39.61,7.09 34.92,9.02 35.3,11.54 39.61,9.77     "/><path class="st5" d="M30.99,11.37c0.17,0.5-1.58,1.68-3.9,2.64s-4.25,1.28-4.3,0.73c-0.05-0.53,1.7-1.68,3.91-2.59      C28.9,11.24,30.82,10.88,30.99,11.37z"/><polygon class="st11" points="45.58,7.32 35.3,11.54 34.92,9.02 43.31,5.57     "/></g></g></g></g><g id="Layer_4"/></svg>