<?xml version="1.0" ?><svg height="32" id="svg5" version="1.1" viewBox="0 0 31.999998 32" width="31.999998" xmlns="http://www.w3.org/2000/svg" xmlns:svg="http://www.w3.org/2000/svg"><defs id="defs2"/><g id="layer1" transform="translate(36,-244)"><path d="m -31,246 c -1.645006,0 -3,1.35499 -3,3 v 22 c 0,1.64501 1.354994,3 3,3 h 16 c 1.645006,0 3,-1.35499 3,-3 v -1.08594 c -0.325775,0.0552 -0.659044,0.0859 -1,0.0859 -0.340956,0 -0.674225,-0.0307 -1,-0.0859 V 271 c 0,0.56413 -0.435872,1 -1,1 h -16 c -0.564128,0 -1,-0.43587 -1,-1 v -22 c 0,-0.56413 0.435872,-1 1,-1 h 16 c 0.564128,0 1,0.43587 1,1 v 9.08594 c 0.325775,-0.0552 0.659044,-0.0859 1,-0.0859 0.340109,0 0.674058,0.0292 1,0.084 V 249 c 0,-1.64501 -1.354994,-3 -3,-3 z" id="rect1907" style="color:#000000;fill:#002cba;fill-opacity:1;fill-rule:evenodd;stroke-linecap:round;stroke-linejoin:round;stroke-miterlimit:4.1;-inkscape-stroke:none"/><path d="m -26.5,260 c -0.552285,0 -1.000003,0.44771 -1,1 v 0.0195 c -0.891137,0.40955 -1.5,1.3449 -1.5,2.38086 0,1.39032 1.095114,2.59961 2.5,2.59961 0.25197,0 0.5,0.22263 0.5,0.59961 0,0.37701 -0.248014,0.59961 -0.5,0.59961 -0.168088,0 -0.317702,-0.0905 -0.417969,-0.27344 a 0.99999499,0.99999499 0 0 0 -1.359375,-0.39648 0.99999499,0.99999499 0 0 0 -0.394531,1.35742 c 0.260522,0.47522 0.672875,0.86561 1.171875,1.09375 V 269 c -3e-6,0.55229 0.447715,1 1,1 0.552285,0 1.000003,-0.44771 1,-1 v -0.0195 c 0.891135,-0.40956 1.5,-1.34491 1.5,-2.38086 0,-1.3903 -1.095092,-2.59961 -2.5,-2.59961 -0.251952,0 -0.5,-0.22263 -0.5,-0.59961 0,-0.37698 0.248064,-0.59961 0.5,-0.59961 0.16876,0 0.319858,0.0912 0.419922,0.27539 a 0.99999499,0.99999499 0 0 0 1.355469,0.40235 0.99999499,0.99999499 0 0 0 0.402343,-1.35743 C -24.58269,261.64165 -24.997453,261.24873 -25.5,261.01953 V 261 c 3e-6,-0.55229 -0.447715,-1 -1,-1 z" id="circle49956-3" style="color:#000000;fill:#002cba;fill-opacity:1;fill-rule:evenodd;stroke-linecap:round;stroke-linejoin:round;stroke-miterlimit:4.1;-inkscape-stroke:none"/><path d="m -28,250 a 1,1 0 0 0 -1,1 1,1 0 0 0 1,1 h 10 a 1,1 0 0 0 1,-1 1,1 0 0 0 -1,-1 z" id="path1970" style="color:#000000;fill:#002cba;fill-opacity:1;fill-rule:evenodd;stroke-linecap:round;stroke-linejoin:round;stroke-miterlimit:4.1;-inkscape-stroke:none"/><path d="m -28,253 a 1,1 0 0 0 -1,1 1,1 0 0 0 1,1 h 10 a 1,1 0 0 0 1,-1 1,1 0 0 0 -1,-1 z" id="path1972" style="color:#000000;fill:#002cba;fill-opacity:1;fill-rule:evenodd;stroke-linecap:round;stroke-linejoin:round;stroke-miterlimit:4.1;-inkscape-stroke:none"/><path d="m -28,256 a 1,1 0 0 0 -1,1 1,1 0 0 0 1,1 h 10 a 1,1 0 0 0 1,-1 1,1 0 0 0 -1,-1 z" id="path1974" style="color:#000000;fill:#002cba;fill-opacity:1;fill-rule:evenodd;stroke-linecap:round;stroke-linejoin:round;stroke-miterlimit:4.1;-inkscape-stroke:none"/><path d="m -13,258 c -3.301862,0 -6,2.69814 -6,6 0,3.30186 2.698138,6 6,6 3.3018617,0 6,-2.69814 6,-6 a 1,1 0 0 0 -1,-1 1,1 0 0 0 -1,1 c 0,2.22098 -1.779019,4 -4,4 -2.220981,0 -4,-1.77902 -4,-4 0,-2.22098 1.779019,-4 4,-4 0.573395,0 1.113274,0.11919 1.603516,0.33398 a 1,1 0 0 0 1.316406,-0.51367 1,1 0 0 0 -0.513672,-1.31836 C -11.330899,258.17897 -12.147564,258 -13,258 Z" id="path1976" style="color:#000000;fill:#00c89f;fill-opacity:1;fill-rule:evenodd;stroke-linecap:round;stroke-linejoin:round;stroke-miterlimit:4.1;-inkscape-stroke:none"/><path d="m -7,258 a 1,1 0 0 0 -0.7070312,0.29297 L -13,263.58594 l -1.292969,-1.29297 a 1,1 0 0 0 -1.414062,0 1,1 0 0 0 0,1.41406 l 2,2 a 1.0001,1.0001 0 0 0 1.414062,0 l 6.0000003,-6 a 1,1 0 0 0 0,-1.41406 A 1,1 0 0 0 -7,258 Z" id="path2031" style="color:#000000;fill:#00c89f;fill-opacity:1;fill-rule:evenodd;stroke-linecap:round;stroke-linejoin:round;stroke-miterlimit:4.1;-inkscape-stroke:none"/></g></svg>