<?xml version="1.0" ?><!DOCTYPE svg  PUBLIC '-//W3C//DTD SVG 1.0//EN'  'http://www.w3.org/TR/2001/REC-SVG-20010904/DTD/svg10.dtd'><svg enable-background="new 0 0 512 512" id="Layer_1" version="1.0" viewBox="0 0 512 512" xml:space="preserve" xmlns="http://www.w3.org/2000/svg" xmlns:xlink="http://www.w3.org/1999/xlink"><g><g><polygon fill="#EC2127" points="432,247.2 432,463.1 238.4,463.1 238.4,347.9 115.2,347.9 115.2,463.1 80,463.1 80,247.2   "/><g><path d="M424.5,247.2c0,48.4,0,96.8,0,145.3c0,23.6,0,47.1,0,70.7c2.5-2.5,5-5,7.5-7.5c-49.6,0-99.1,0-148.7,0c-15,0-30,0-45,0     c2.5,2.5,5,5,7.5,7.5c0-38.4,0-76.8,0-115.2c0-4.1-3.4-7.5-7.5-7.5c-41.1,0-82.1,0-123.2,0c-4.1,0-7.5,3.4-7.5,7.5     c0,38.4,0,76.8,0,115.2c2.5-2.5,5-5,7.5-7.5c-11.7,0-23.5,0-35.2,0c2.5,2.5,5,5,7.5,7.5c0-48.4,0-96.8,0-145.3     c0-23.6,0-47.1,0-70.7c-2.5,2.5-5,5-7.5,7.5c37.6,0,75.3,0,112.9,0c62.2,0,124.4,0,186.5,0c17.5,0,35.1,0,52.6,0     c9.7,0,9.7-15,0-15c-37.6,0-75.3,0-112.9,0c-62.2,0-124.4,0-186.5,0c-17.5,0-35.1,0-52.6,0c-4.1,0-7.5,3.4-7.5,7.5     c0,48.4,0,96.8,0,145.3c0,23.6,0,47.1,0,70.7c0,4.1,3.4,7.5,7.5,7.5c11.7,0,23.5,0,35.2,0c4.1,0,7.5-3.4,7.5-7.5     c0-38.4,0-76.8,0-115.2c-2.5,2.5-5,5-7.5,7.5c41.1,0,82.1,0,123.2,0c-2.5-2.5-5-5-7.5-7.5c0,38.4,0,76.8,0,115.2     c0,4.1,3.4,7.5,7.5,7.5c49.6,0,99.1,0,148.7,0c15,0,30,0,45,0c4.1,0,7.5-3.4,7.5-7.5c0-48.4,0-96.8,0-145.3c0-23.6,0-47.1,0-70.7     C439.5,237.5,424.5,237.5,424.5,247.2z"/></g></g><g><rect fill="#C1272D" height="48.1" width="352" x="80" y="199.1"/><g><path d="M424.5,199.1c0,16,0,32.1,0,48.1c2.5-2.5,5-5,7.5-7.5c-37.6,0-75.3,0-112.9,0c-62.2,0-124.4,0-186.5,0     c-17.5,0-35.1,0-52.6,0c2.5,2.5,5,5,7.5,7.5c0-16,0-32.1,0-48.1c-2.5,2.5-5,5-7.5,7.5c37.6,0,75.3,0,112.9,0     c62.2,0,124.4,0,186.5,0c17.5,0,35.1,0,52.6,0c9.7,0,9.7-15,0-15c-37.6,0-75.3,0-112.9,0c-62.2,0-124.4,0-186.5,0     c-17.5,0-35.1,0-52.6,0c-4.1,0-7.5,3.4-7.5,7.5c0,16,0,32.1,0,48.1c0,4.1,3.4,7.5,7.5,7.5c37.6,0,75.3,0,112.9,0     c62.2,0,124.4,0,186.5,0c17.5,0,35.1,0,52.6,0c4.1,0,7.5-3.4,7.5-7.5c0-16,0-32.1,0-48.1C439.5,189.5,424.5,189.5,424.5,199.1z"/></g></g><g><rect fill="#6FCCDD" height="115.2" width="69.6" x="168.8" y="347.9"/><g><path d="M230.9,347.9c0,38.4,0,76.8,0,115.2c2.5-2.5,5-5,7.5-7.5c-23.2,0-46.4,0-69.6,0c2.5,2.5,5,5,7.5,7.5     c0-38.4,0-76.8,0-115.2c-2.5,2.5-5,5-7.5,7.5c23.2,0,46.4,0,69.6,0c9.7,0,9.7-15,0-15c-23.2,0-46.4,0-69.6,0     c-4.1,0-7.5,3.4-7.5,7.5c0,38.4,0,76.8,0,115.2c0,4.1,3.4,7.5,7.5,7.5c23.2,0,46.4,0,69.6,0c4.1,0,7.5-3.4,7.5-7.5     c0-38.4,0-76.8,0-115.2C245.9,338.2,230.9,338.2,230.9,347.9z"/></g></g><g><rect fill="#32BEBC" height="115.2" width="53.6" x="115.2" y="347.9"/><g><path d="M161.3,347.9c0,38.4,0,76.8,0,115.2c2.5-2.5,5-5,7.5-7.5c-17.9,0-35.8,0-53.6,0c2.5,2.5,5,5,7.5,7.5     c0-38.4,0-76.8,0-115.2c-2.5,2.5-5,5-7.5,7.5c17.9,0,35.8,0,53.6,0c9.7,0,9.7-15,0-15c-17.9,0-35.8,0-53.6,0     c-4.1,0-7.5,3.4-7.5,7.5c0,38.4,0,76.8,0,115.2c0,4.1,3.4,7.5,7.5,7.5c17.9,0,35.8,0,53.6,0c4.1,0,7.5-3.4,7.5-7.5     c0-38.4,0-76.8,0-115.2C176.3,338.2,161.3,338.2,161.3,347.9z"/></g></g><g><path d="M484.8,469.5v20.9H27.2v-20.9c0-3.5,2.9-6.4,6.4-6.4h444.9C482,463.1,484.8,466,484.8,469.5z" fill="#998675"/><g><path d="M477.3,469.5c0,7,0,13.9,0,20.9c2.5-2.5,5-5,7.5-7.5c-31.3,0-62.5,0-93.8,0c-63.7,0-127.3,0-191,0     c-50.9,0-101.8,0-152.7,0c-6.7,0-13.4,0-20.2,0c2.5,2.5,5,5,7.5,7.5c0-6.1,0-12.2,0-18.3c0-0.8,0-1.7,0-2.5     c0,0.4-0.5,1.1-1.1,1.1c0.2,0,0.5,0,0.7,0c3.8,0,7.6,0,11.4,0c18.9,0,37.7,0,56.6,0c61.8,0,123.7,0,185.5,0     c54.2,0,108.4,0,162.6,0c6.9,0,13.9,0,20.8,0c1.8,0,3.6,0,5.4,0C479.3,470.6,477.5,471,477.3,469.5c0.4,4.1,3.1,7.5,7.5,7.5     c3.8,0,7.9-3.4,7.5-7.5c-0.8-7.8-6-13.9-14.2-13.9c-1.1,0-2.3,0-3.4,0c-5.5,0-11,0-16.5,0c-21.3,0-42.7,0-64,0     c-63.2,0-126.5,0-189.7,0c-50.8,0-101.6,0-152.4,0c-5.8,0-11.7,0-17.5,0c-8.4,0-14,5.7-14.8,13.9c-0.7,6.8,0,14,0,20.9     c0,4.1,3.4,7.5,7.5,7.5c31.3,0,62.5,0,93.8,0c63.7,0,127.3,0,191,0c50.9,0,101.8,0,152.7,0c6.7,0,13.4,0,20.2,0     c4.1,0,7.5-3.4,7.5-7.5c0-7,0-13.9,0-20.9C492.3,459.9,477.3,459.9,477.3,469.5z"/></g></g><g><g><path d="M145.7,156.4C145.7,156.4,145.7,156.4,145.7,156.4c-4.1,0-7.5,3.4-7.5,7.5c0,4.1,3.4,7.5,7.5,7.5c0,0,0,0,0,0     c4.1,0,7.5-3.4,7.5-7.5C153.2,159.8,149.7,156.4,145.7,156.4L145.7,156.4z"/><path d="M366.4,156.4C366.3,156.4,366.3,156.4,366.4,156.4c-4.1,0-7.5,3.4-7.5,7.5c0,4.1,3.4,7.5,7.5,7.5c0,0,0,0,0,0     c4.1,0,7.5-3.4,7.5-7.5C373.9,159.8,370.4,156.4,366.4,156.4L366.4,156.4z"/></g></g><g><path d="M449.6,170.3v22.5c0,3.5-2.8,6.4-6.4,6.4H68.8c-3.5,0-6.4-2.9-6.4-6.4v-22.5c0-3.5,2.8-6.4,6.4-6.4h76.9    v6.1c0,3.9,3.6,7,8,7h204.7c4.4,0,8-3.2,8-7v-6.1h76.9C446.8,163.9,449.6,166.8,449.6,170.3z" fill="#0D71BA"/><g><path d="M442.1,170.3c0,6.2,0,12.4,0,18.6c0,1.1,0,2.3,0,3.4c0,1.2,0.1-0.6,1.1-0.6c-0.2,0-0.5,0-0.7,0c-4.3,0-8.5,0-12.8,0     c-21.2,0-42.4,0-63.6,0c-63.6,0-127.2,0-190.7,0c-25.5,0-51,0-76.5,0c-7.5,0-15,0-22.5,0c-2,0-3.9,0-5.9,0     c-2.7,0-0.9-0.4-0.7,1.1c-0.4-4.3,0-8.9,0-13.2c0-2.5,0-4.9,0-7.4c0-2.9,0.3-0.7-1.1-0.7c7,0,14,0,21.1,0c18.6,0,37.2,0,55.8,0     c-2.5-2.5-5-5-7.5-7.5c0,2.9-0.5,6.5,0.4,9.4c2.2,7.1,7.9,10.7,15.1,11.3c1.3,0.1,2.6,0,3.8,0c8.9,0,17.8,0,26.7,0     c30.9,0,61.8,0,92.7,0c21.6,0,43.3,0,64.9,0c5.1,0,10.2,0,15.3,0c3.1,0,6.5-0.3,9.2-2c7.2-4.5,7.7-11,7.7-18.7     c-2.5,2.5-5,5-7.5,7.5c13.1,0,26.3,0,39.4,0c8.7,0,17.4,0,26.2,0c2.9,0,5.7,0,8.6,0c0.7,0,1.4,0,2.1,0     C444,171.4,442.2,171.3,442.1,170.3c0.4,4.1,3.1,7.5,7.5,7.5c3.8,0,7.9-3.4,7.5-7.5c-0.8-7.5-5.8-13.9-13.9-13.9     c-1.6,0-3.3,0-4.9,0c-8.8,0-17.7,0-26.5,0c-15.1,0-30.2,0-45.4,0c-4.1,0-7.5,3.4-7.5,7.5c0,1.3,0,2.6,0,4c0,0.7,0,1.3,0,2     c0,0.6,0.6-0.6,0.3-0.5c-0.5,0.2-1.1,0.2-1.7,0.2c-2.4,0-4.8,0-7.2,0c-10.5,0-21.1,0-31.6,0c-31.7,0-63.3,0-95,0     c-17.8,0-35.5,0-53.3,0c-4.6,0-9.3,0-13.9,0c-0.9,0-1.7,0-2.6,0c-1.5,0-0.6-0.5-0.6,0.3c0-2,0-4,0-5.9c0-4.1-3.4-7.5-7.5-7.5     c-24.3,0-48.6,0-72.9,0c-5.9,0-12.5,0.6-15.7,6.5c-3.4,6.3-2.1,14.6-2.1,21.5c0,8.2-0.5,18.3,9.4,21.4c2.1,0.6,4,0.8,6.2,0.8     c42.5,0,85,0,127.5,0c62.4,0,124.8,0,187.2,0c17,0,34,0,51,0c2.8,0,5.6,0.2,8.4-0.1c16.8-1.7,12.6-24.5,12.6-36.2     C457.1,160.6,442.1,160.6,442.1,170.3z"/></g></g><g><g><path d="M443.2,171.4c9.7,0,9.7-15,0-15C433.6,156.4,433.6,171.4,443.2,171.4L443.2,171.4z"/></g></g><g><g><path d="M363.7,23.5L256,99.3L148.3,23.5c1.4-1.1,3.3-1.8,5.4-1.8h204.7C360.4,21.6,362.3,22.3,363.7,23.5z" fill="#FBB03B"/><g><path d="M359.9,17C324,42.3,288.1,67.6,252.2,92.9c2.5,0,5,0,7.6,0C223.9,67.6,188,42.3,152,17c0,4.3,0,8.6,0,13      c1.6-1.1,3-0.8,4.9-0.8c3.4,0,6.7,0,10.1,0c11.9,0,23.7,0,35.6,0c32,0,64,0,96,0c14.3,0,28.7,0,43,0c4.2,0,8.4,0,12.5,0      c2.1,0,4-0.4,5.7,0.8c8.1,5.4,15.5-7.6,7.6-13c-5.8-3.9-13.8-2.9-20.5-2.9c-11.4,0-22.8,0-34.2,0c-31.9,0-63.8,0-95.8,0      c-15.6,0-31.1,0-46.7,0c-7.8,0-19-1.7-25.8,2.9c-4.9,3.3-4.7,9.6,0,13c35.9,25.3,71.8,50.6,107.7,75.9c2,1.4,5.6,1.4,7.6,0      c35.9-25.3,71.8-50.6,107.7-75.9C375.4,24.4,367.9,11.4,359.9,17z"/></g></g><g><path d="M366.3,28.6V170c0,3.9-3.6,7-8,7H153.7c-4.4,0-8-3.2-8-7V28.6c0-2.1,1-3.9,2.6-5.2L256,99.3l107.7-75.9     C365.3,24.7,366.3,26.6,366.3,28.6z" fill="#F79420"/><g><path d="M358.8,28.6c0,46.6,0,93.2,0,139.9c0,0.5,0,1,0,1.5c0-1.1,0.1-0.5-1-0.5c-2.1,0-4.3,0-6.4,0c-10.1,0-20.3,0-30.4,0      c-31.5,0-63,0-94.5,0c-23.1,0-46.2,0-69.3,0c-1.4,0-2.9,0.2-4.3-0.2c0.4,0.1,0.3,1.1,0.3-0.3c0-1.2,0-2.5,0-3.7      c0-11.3,0-22.6,0-33.8c0-22.4,0-44.8,0-67.2c0-8.5,0-17.1,0-25.6c0-2.3-0.9-8.9,0.4-10.1c-3,0.4-6.1,0.8-9.1,1.2      c35.9,25.3,71.8,50.6,107.7,75.9c2,1.4,5.6,1.4,7.6,0c35.9-25.3,71.8-50.6,107.7-75.9c-3-0.4-6.1-0.8-9.1-1.2      C358.6,28.7,358.7,28.7,358.8,28.6c0.5,4.1,3,7.5,7.5,7.5c3.7,0,8-3.4,7.5-7.5c-0.5-4.3-1.7-7.5-4.8-10.5      c-2.3-2.2-6.3-3.1-9.1-1.2C324,42.3,288.1,67.6,252.2,92.9c2.5,0,5,0,7.6,0C223.9,67.6,188,42.3,152,17c-2.7-1.9-6.8-1-9.1,1.2      c-6.6,6.5-4.8,17-4.8,25.5c0,14.1,0,28.2,0,42.4c0,26.9,0,53.7,0,80.6c0,3.9,0.2,7.2,2.1,10.8c2.9,5.3,9.2,7.2,14.8,7.2      c7.4,0,14.7,0,22.1,0c29.9,0,59.9,0,89.8,0c26.9,0,53.7,0,80.6,0c7,0,15.6,1.2,21.3-3.9c6.8-6,5-16.8,5-25      c0-42.4,0-84.7,0-127.1C373.8,19,358.8,19,358.8,28.6z"/></g></g></g></g></svg>