<svg xmlns="http://www.w3.org/2000/svg" viewBox="0 0 64 64"><defs><style>.cls-1{fill:#e8eaf6;}.cls-2{fill:#c4cbe9;}.cls-3{fill:#0090e0;}.cls-4{fill:#ba1d08;}.cls-5{fill:#ff2400;}.cls-6{opacity:0.2;}</style></defs><title>Shop</title><g id="Layer_2" data-name="Layer 2"><g id="Layer_1-2" data-name="Layer 1"><path class="cls-1" d="M60,24V61a3.27,3.27,0,0,1-3.5,3H7.5A3.27,3.27,0,0,1,4,61V24H60Z"/><path class="cls-2" d="M60,58v3a3.27,3.27,0,0,1-3.5,3H7.5A3.27,3.27,0,0,1,4,61V58Z"/><rect class="cls-3" x="40" y="44" width="12" height="20"/><path class="cls-4" d="M16,14v8a4,4,0,0,1-8,0V14Z"/><path class="cls-5" d="M24,14v8a4,4,0,0,1-8,0V14Z"/><path class="cls-4" d="M32,14v8a4,4,0,0,1-8,0V14Z"/><path class="cls-5" d="M40,14v8a4,4,0,0,1-8,0V14Z"/><path class="cls-4" d="M48,14v8a4,4,0,0,1-8,0V14Z"/><path class="cls-5" d="M56,14v8a4,4,0,0,1-8,0V14Z"/><rect class="cls-5" x="16" width="10" height="14"/><rect class="cls-4" x="38" width="10" height="14"/><polygon class="cls-5" points="56 14 54 0 46 0 48 14 56 14"/><polygon class="cls-4" points="8 14 10 0 18 0 16 14 8 14"/><path class="cls-5" d="M12,0,8,14v8a4,4,0,0,1-4,4l-.4,0A4.12,4.12,0,0,1,0,21.83v-6.6A5.71,5.71,0,0,1,.13,14a5.51,5.51,0,0,1,.36-1.13L5,2.42A4,4,0,0,1,8.64,0Z"/><polygon class="cls-4" points="24 14 26 0 32 0 32 14 24 14"/><polygon class="cls-5" points="32 14 32 0 38 0 40 14 32 14"/><path class="cls-4" d="M64,15.23V22a4,4,0,0,1-4,4l-.4,0A4.12,4.12,0,0,1,56,21.83V14L52,0h3.36A4,4,0,0,1,59,2.42l4.47,10.45A5.51,5.51,0,0,1,63.87,14,5.71,5.71,0,0,1,64,15.23Z"/><rect class="cls-3" x="12" y="44" width="24" height="20"/><rect class="cls-2" x="12" y="30" width="40" height="10"/><path class="cls-6" d="M64,15.23V22a4,4,0,0,1-4,4l-.4,0A4.12,4.12,0,0,1,56,21.83V22a4,4,0,0,1-8,0,4,4,0,0,1-8,0,4,4,0,0,1-8,0,4,4,0,0,1-8,0,4,4,0,0,1-8,0,4,4,0,0,1-8,0,4,4,0,0,1-4,4l-.4,0A4.12,4.12,0,0,1,0,21.83v-6.6A5.71,5.71,0,0,1,.13,14H63.87A5.71,5.71,0,0,1,64,15.23Z"/></g></g></svg>