<?xml version="1.0" encoding="iso-8859-1"?>
<!-- Generator: Adobe Illustrator 19.0.0, SVG Export Plug-In . SVG Version: 6.00 Build 0)  -->
<svg version="1.1" id="Capa_1" xmlns="http://www.w3.org/2000/svg" xmlns:xlink="http://www.w3.org/1999/xlink" x="0px" y="0px"
	 viewBox="0 0 490 490" style="enable-background:new 0 0 490 490;" xml:space="preserve">
<g>
	<path d="M404.958,129.123h-94.646v227.186h-81.162c-7.9-18.069-25.939-30.732-46.887-30.732c-20.948,0-38.985,12.663-46.883,30.732
		H44.013v20.417h87.105c0.001,28.202,22.945,51.149,51.147,51.149c28.202,0,51.15-22.947,51.151-51.149h115.592
		c0.001,28.202,22.949,51.149,51.151,51.149c28.202,0,51.146-22.947,51.147-51.149H490v-144.96L404.958,129.123z M182.265,407.457
		c-16.943,0-30.73-13.786-30.73-30.734c0-16.943,13.787-30.73,30.73-30.73c16.948,0,30.734,13.787,30.734,30.73
		C212.999,393.671,199.213,407.457,182.265,407.457z M400.158,407.457c-16.947,0-30.734-13.786-30.734-30.734
		c0-16.943,13.787-30.73,30.734-30.73c16.943,0,30.73,13.787,30.73,30.73C430.889,393.671,417.101,407.457,400.158,407.457z
		 M469.583,356.309h-22.542c-7.899-18.069-25.936-30.732-46.883-30.732c-20.947,0-38.987,12.663-46.887,30.732h-22.542V149.54
		h64.629l74.225,89.582V356.309z"/>
	<path d="M346.411,171.422v69.439h100.648l-55.757-69.439H346.411z M366.827,220.445v-28.606h14.685l22.969,28.606H366.827z"/>
	<path d="M59.022,317.574h231.373V96.399H166.212c-17.213-20.914-43.289-34.274-72.428-34.274C42.07,62.126,0,104.195,0,155.905
		c0,39.435,24.469,73.259,59.022,87.098V317.574z M269.978,116.816v180.341H79.438v-48.569c4.678,0.721,9.469,1.096,14.345,1.096
		c51.711,0,93.779-42.07,93.779-93.78c0-13.943-3.064-27.183-8.545-39.089H269.978z M20.417,155.905
		c0-40.455,32.913-73.362,73.367-73.362s73.362,32.908,73.362,73.362c0,40.455-32.908,73.363-73.362,73.363
		S20.417,196.359,20.417,155.905z"/>
	<polygon points="130.685,165.585 103.992,150.038 103.992,98.064 83.576,98.064 83.576,161.771 120.406,183.23 	"/>
</g>
<g>
</g>
<g>
</g>
<g>
</g>
<g>
</g>
<g>
</g>
<g>
</g>
<g>
</g>
<g>
</g>
<g>
</g>
<g>
</g>
<g>
</g>
<g>
</g>
<g>
</g>
<g>
</g>
<g>
</g>
</svg>
